<svg width="1920" height="978" viewBox="0 0 1920 978" fill="none" xmlns="http://www.w3.org/2000/svg">
<mask id="mask0_7_107" style="mask-type:alpha" maskUnits="userSpaceOnUse" x="0" y="0" width="1920" height="978">
<rect width="1920" height="978" fill="white"/>
</mask>
<g mask="url(#mask0_7_107)">
<rect x="361" y="-1" width="76" height="984" fill="white" stroke="#474747" stroke-width="2"/>
<path d="M539 -1V594.389C539 624.519 537.656 645.674 535.572 660.169C534.53 667.416 533.306 672.978 531.98 677.153C530.651 681.342 529.238 684.07 527.859 685.709C526.497 687.328 525.244 687.805 524.151 687.729C523.001 687.648 521.75 686.94 520.472 685.606C517.916 682.94 515.694 678.234 514.466 673.675C513.222 669.058 512.234 664.047 511.193 659.479C510.168 654.978 509.08 650.848 507.625 648.217C506.9 646.906 505.996 645.8 504.808 645.298C503.538 644.761 502.194 645.008 500.862 645.872C499.564 646.715 498.187 648.193 496.687 650.325C495.176 652.471 493.495 655.346 491.608 659.056C487.798 666.547 483.995 679.434 480.434 694.453C476.865 709.502 473.516 726.788 470.64 743.141C467.763 759.495 465.355 774.925 463.667 786.267C463.43 787.858 463.208 789.369 463 790.791V-1H539Z" stroke="#474747" stroke-width="2"/>
<rect x="1437.2" y="-27.3419" width="76" height="1097.23" transform="rotate(16.5178 1437.2 -27.3419)" fill="white" stroke="#474747" stroke-width="2"/>
<rect x="1483" y="-1" width="76" height="984" fill="white" stroke="#474747" stroke-width="2"/>
<path d="M616.88 546.26C608.387 546.26 600.717 544.527 593.87 541.06C587.11 537.507 581.78 532.263 577.88 525.33C573.98 518.397 572.03 509.86 572.03 499.72C572.03 489.58 573.98 480.827 577.88 473.46C581.867 466.093 587.283 460.46 594.13 456.56C601.063 452.573 608.95 450.58 617.79 450.58C628.017 450.58 635.86 452.01 641.32 454.87C646.78 457.73 649.51 461.977 649.51 467.61C649.51 471.943 648.34 475.54 646 478.4C643.66 481.173 640.453 482.56 636.38 482.56C632.913 482.56 629.533 482.127 626.24 481.26C623.033 480.307 619.263 479.83 614.93 479.83C609.383 479.83 605.007 481.433 601.8 484.64C598.593 487.847 596.99 492.05 596.99 497.25C596.99 502.363 598.593 506.653 601.8 510.12C605.007 513.5 609.383 515.19 614.93 515.19C617.877 515.19 620.563 514.973 622.99 514.54C625.503 514.02 627.93 513.5 630.27 512.98C632.697 512.46 635.297 512.2 638.07 512.2C642.663 512.2 646.043 513.717 648.21 516.75C650.377 519.697 651.46 523.38 651.46 527.8C651.46 532.22 649.857 535.817 646.65 538.59C643.443 541.277 639.197 543.227 633.91 544.44C628.71 545.653 623.033 546.26 616.88 546.26Z" fill="black"/>
<path d="M855.384 548.504C851.715 548.504 848.6 547.224 846.04 544.664C843.565 542.104 842.328 539.032 842.328 535.448C842.328 531.864 843.608 528.792 846.168 526.232C848.728 523.672 851.8 522.392 855.384 522.392C858.968 522.392 862.04 523.672 864.6 526.232C867.16 528.792 868.44 531.864 868.44 535.448C868.44 539.117 867.16 542.189 864.6 544.664C862.04 547.224 858.968 548.504 855.384 548.504ZM843.864 535.448C843.864 538.605 844.973 541.293 847.192 543.512C849.411 545.816 852.141 546.968 855.384 546.968C858.627 546.968 861.357 545.859 863.576 543.64C865.795 541.421 866.904 538.691 866.904 535.448C866.904 532.205 865.795 529.475 863.576 527.256C861.357 525.037 858.627 523.928 855.384 523.928C852.227 523.928 849.496 525.037 847.192 527.256C844.973 529.475 843.864 532.205 843.864 535.448ZM917.175 544.28C909.58 544.28 902.668 542.403 896.439 538.648C890.21 534.893 885.26 529.56 881.591 522.648C878.007 515.651 876.215 507.288 876.215 497.56V492.44C876.215 484.675 877.452 477.677 879.927 471.448C882.402 465.219 885.815 459.928 890.167 455.576C894.604 451.139 899.724 447.768 905.527 445.464C911.415 443.16 917.687 442.008 924.343 442.008C931.34 442.008 937.911 443.075 944.055 445.208C950.284 447.256 955.618 450.456 960.055 454.808C964.492 459.16 967.522 464.749 969.143 471.576C969.314 472.173 969.1 472.472 968.503 472.472C967.991 472.472 967.692 472.259 967.607 471.832C965.986 465.261 963.042 459.928 958.775 455.832C954.594 451.651 949.516 448.579 943.543 446.616C937.655 444.568 931.255 443.544 924.343 443.544C917.858 443.544 911.799 444.696 906.167 447C900.535 449.219 895.586 452.461 891.319 456.728C887.052 460.995 883.724 466.157 881.335 472.216C878.946 478.189 877.751 484.931 877.751 492.44V497.56C877.751 507.032 879.5 515.139 882.999 521.88C886.498 528.621 891.234 533.784 897.207 537.368C903.18 540.952 909.836 542.744 917.175 542.744C922.38 542.744 926.946 541.72 930.871 539.672C934.882 537.539 937.228 534.509 937.911 530.584C937.911 530.072 938.167 529.816 938.679 529.816C939.191 529.816 939.447 530.072 939.447 530.584C939.447 533.912 940.386 536.557 942.263 538.52C944.226 540.397 946.658 541.336 949.559 541.336H960.567C963.468 541.336 965.9 540.312 967.863 538.264C969.826 536.131 970.807 533.528 970.807 530.456V504.472C970.807 501.485 969.826 498.925 967.863 496.792C965.9 494.659 963.468 493.592 960.567 493.592H934.455C931.554 493.592 929.122 494.659 927.159 496.792C925.282 498.925 924.343 501.485 924.343 504.472C924.343 504.984 924.087 505.24 923.575 505.24C922.978 505.24 922.679 504.984 922.679 504.472C922.679 501.144 923.831 498.243 926.135 495.768C928.524 493.293 931.298 492.056 934.455 492.056H960.567C963.895 492.056 966.668 493.293 968.887 495.768C971.191 498.157 972.343 501.059 972.343 504.472V530.456C972.343 533.955 971.191 536.899 968.887 539.288C966.668 541.677 963.895 542.872 960.567 542.872H949.559C946.914 542.872 944.524 542.147 942.391 540.696C940.343 539.16 938.978 537.027 938.295 534.296C936.759 537.453 933.986 539.928 929.975 541.72C926.05 543.427 921.783 544.28 917.175 544.28ZM995.164 543C991.665 543 988.679 541.805 986.204 539.416C983.815 536.941 982.62 533.997 982.62 530.584V493.08C982.62 489.581 983.857 486.637 986.332 484.248C988.807 481.773 991.751 480.536 995.164 480.536H1002.2C1005.36 480.536 1008.09 481.56 1010.4 483.608C1011.42 484.461 1012.32 485.485 1013.08 486.68C1013.85 487.789 1014.32 489.24 1014.49 491.032C1015.77 487.277 1017.82 484.376 1020.64 482.328C1023.45 480.28 1026.74 479.256 1030.49 479.256C1036.04 479.256 1040.48 480.92 1043.8 484.248C1047.22 487.491 1048.92 491.928 1048.92 497.56C1048.92 501.144 1048.16 504.429 1046.62 507.416C1045.17 510.317 1043.08 512.451 1040.35 513.816C1037.96 515.011 1035.31 515.651 1032.41 515.736C1029.6 515.736 1026.82 515.011 1024.09 513.56C1023.32 513.219 1023.2 512.792 1023.71 512.28C1024.05 511.939 1024.39 511.896 1024.73 512.152C1030.11 514.797 1035.06 514.925 1039.58 512.536C1041.97 511.341 1043.85 509.421 1045.21 506.776C1046.66 504.131 1047.39 501.016 1047.39 497.432C1047.39 492.312 1045.85 488.259 1042.78 485.272C1039.71 482.285 1035.61 480.792 1030.49 480.792C1027.51 480.792 1024.77 481.56 1022.3 483.096C1019.91 484.632 1018.03 486.637 1016.67 489.112C1015.3 491.587 1014.62 494.232 1014.62 497.048C1014.62 497.56 1014.36 497.816 1013.85 497.816C1013.34 497.816 1013.08 497.56 1013.08 497.048V492.952C1013.08 490.819 1012.7 489.155 1011.93 487.96C1011.25 486.68 1010.4 485.613 1009.37 484.76C1007.32 482.968 1004.93 482.072 1002.2 482.072H995.164C992.092 482.072 989.489 483.181 987.356 485.4C985.223 487.533 984.156 490.093 984.156 493.08V530.584C984.156 533.656 985.223 536.259 987.356 538.392C989.489 540.44 992.092 541.464 995.164 541.464H1002.2C1005.28 541.464 1007.84 540.44 1009.88 538.392C1012.02 536.259 1013.08 533.656 1013.08 530.584C1013.08 530.072 1013.34 529.816 1013.85 529.816C1014.36 529.816 1014.62 530.072 1014.62 530.584C1014.62 533.997 1013.43 536.941 1011.04 539.416C1008.65 541.805 1005.7 543 1002.2 543H995.164ZM1088.49 544.28C1082.35 544.28 1076.76 542.915 1071.72 540.184C1066.77 537.368 1062.81 533.571 1059.82 528.792C1056.83 523.928 1055.34 518.509 1055.34 512.536V511.256C1055.34 505.027 1056.83 499.523 1059.82 494.744C1062.81 489.965 1066.77 486.211 1071.72 483.48C1076.76 480.664 1082.35 479.256 1088.49 479.256H1089.26C1095.49 479.256 1101.08 480.664 1106.03 483.48C1111.06 486.211 1115.07 489.965 1118.06 494.744C1121.05 499.523 1122.54 505.027 1122.54 511.256V512.536C1122.54 518.509 1121.05 523.928 1118.06 528.792C1115.07 533.571 1111.06 537.368 1106.03 540.184C1101.08 542.915 1095.49 544.28 1089.26 544.28H1088.49ZM1056.88 512.536C1056.88 518.253 1058.28 523.416 1061.1 528.024C1063.92 532.547 1067.71 536.131 1072.49 538.776C1077.27 541.421 1082.6 542.744 1088.49 542.744H1089.26C1095.23 542.744 1100.61 541.421 1105.39 538.776C1110.17 536.131 1113.96 532.547 1116.78 528.024C1119.6 523.416 1121 518.253 1121 512.536V511.256C1121 505.283 1119.6 500.035 1116.78 495.512C1113.96 490.904 1110.17 487.32 1105.39 484.76C1100.61 482.115 1095.23 480.792 1089.26 480.792H1088.49C1082.6 480.792 1077.27 482.115 1072.49 484.76C1067.71 487.32 1063.92 490.904 1061.1 495.512C1058.28 500.035 1056.88 505.283 1056.88 511.256V512.536ZM1162.12 544.28C1155.97 544.28 1150.38 542.915 1145.35 540.184C1140.4 537.368 1136.43 533.571 1133.45 528.792C1130.46 523.928 1128.97 518.509 1128.97 512.536V511.256C1128.97 505.027 1130.46 499.523 1133.45 494.744C1136.43 489.965 1140.4 486.211 1145.35 483.48C1150.38 480.664 1155.97 479.256 1162.12 479.256H1162.89C1169.11 479.256 1174.7 480.664 1179.65 483.48C1184.69 486.211 1188.7 489.965 1191.69 494.744C1194.67 499.523 1196.17 505.027 1196.17 511.256V512.536C1196.17 518.509 1194.67 523.928 1191.69 528.792C1188.7 533.571 1184.69 537.368 1179.65 540.184C1174.7 542.915 1169.11 544.28 1162.89 544.28H1162.12ZM1130.5 512.536C1130.5 518.253 1131.91 523.416 1134.73 528.024C1137.54 532.547 1141.34 536.131 1146.12 538.776C1150.9 541.421 1156.23 542.744 1162.12 542.744H1162.89C1168.86 542.744 1174.23 541.421 1179.01 538.776C1183.79 536.131 1187.59 532.547 1190.41 528.024C1193.22 523.416 1194.63 518.253 1194.63 512.536V511.256C1194.63 505.283 1193.22 500.035 1190.41 495.512C1187.59 490.904 1183.79 487.32 1179.01 484.76C1174.23 482.115 1168.86 480.792 1162.89 480.792H1162.12C1156.23 480.792 1150.9 482.115 1146.12 484.76C1141.34 487.32 1137.54 490.904 1134.73 495.512C1131.91 500.035 1130.5 505.283 1130.5 511.256V512.536ZM1239.84 544.28C1236.34 544.365 1233.01 543.683 1229.85 542.232C1226.78 540.696 1224.05 537.965 1221.66 534.04L1204.38 504.984C1202.16 501.229 1201.35 497.347 1201.95 493.336C1202.55 489.24 1204.81 485.955 1208.73 483.48L1211.55 481.688C1213.77 480.323 1215.77 479.555 1217.57 479.384C1219.36 479.128 1220.94 479.085 1222.3 479.256C1224.52 479.512 1226.4 480.365 1227.93 481.816C1229.56 483.181 1230.96 484.888 1232.16 486.936C1232.33 487.192 1232.33 487.448 1232.16 487.704C1231.99 487.96 1231.77 488.088 1231.52 488.088C1231.09 488.088 1230.88 487.96 1230.88 487.704C1229.77 485.741 1228.49 484.163 1227.04 482.968C1225.67 481.688 1224.01 480.92 1222.05 480.664C1220.85 480.493 1219.49 480.493 1217.95 480.664C1216.41 480.835 1214.54 481.603 1212.32 482.968L1209.63 484.632C1206.13 486.765 1204.08 489.709 1203.49 493.464C1202.89 497.219 1203.61 500.803 1205.66 504.216L1222.94 533.272C1225.16 536.941 1227.68 539.459 1230.49 540.824C1233.31 542.104 1236.42 542.744 1239.84 542.744C1241.03 542.659 1242.48 542.403 1244.19 541.976C1245.98 541.464 1247.82 540.483 1249.69 539.032C1251.66 537.496 1253.45 535.235 1255.07 532.248L1271.84 502.296C1273.54 499.139 1273.93 495.896 1272.99 492.568C1272.05 489.155 1270.09 486.552 1267.1 484.76L1263.39 482.584C1260.23 480.707 1256.95 480.237 1253.53 481.176C1250.12 482.115 1247.56 484.12 1245.85 487.192L1235.36 506.392C1235.27 506.648 1235.06 506.776 1234.72 506.776C1234.46 506.776 1234.25 506.691 1234.08 506.52C1233.91 506.264 1233.91 505.965 1234.08 505.624L1244.57 486.424C1245.85 484.12 1247.56 482.371 1249.69 481.176C1251.91 479.896 1254.3 479.256 1256.86 479.256C1259.42 479.256 1261.85 479.939 1264.16 481.304L1267.87 483.48C1270.17 484.76 1271.92 486.509 1273.12 488.728C1274.4 490.947 1275.04 493.336 1275.04 495.896C1275.04 498.371 1274.4 500.76 1273.12 503.064L1256.35 533.016C1254.56 536.173 1252.64 538.563 1250.59 540.184C1248.54 541.805 1246.54 542.872 1244.57 543.384C1242.7 543.896 1241.12 544.195 1239.84 544.28ZM1315.78 544.28C1309.12 544.28 1303.19 542.957 1297.98 540.312C1292.78 537.667 1288.68 533.912 1285.7 529.048C1282.71 524.184 1281.22 518.424 1281.22 511.768C1281.22 505.795 1282.62 500.333 1285.44 495.384C1288.26 490.435 1292.22 486.509 1297.34 483.608C1302.55 480.621 1308.56 479.128 1315.39 479.128H1317.31C1324.05 479.128 1329.64 480.536 1334.08 483.352C1338.6 486.083 1341.97 489.581 1344.19 493.848C1346.5 498.029 1347.65 502.339 1347.65 506.776C1347.65 508.312 1347.09 509.635 1345.98 510.744C1344.87 511.768 1343.55 512.28 1342.01 512.28H1310.66C1310.06 512.28 1309.76 512.024 1309.76 511.512C1309.76 511 1310.06 510.744 1310.66 510.744H1342.01C1343.21 510.744 1344.19 510.403 1344.96 509.72C1345.73 508.952 1346.11 507.971 1346.11 506.776C1346.11 502.595 1345.04 498.499 1342.91 494.488C1340.78 490.477 1337.58 487.192 1333.31 484.632C1329.13 481.987 1323.8 480.664 1317.31 480.664H1315.39C1308.82 480.664 1303.06 482.072 1298.11 484.888C1293.25 487.704 1289.45 491.459 1286.72 496.152C1284.07 500.845 1282.75 506.051 1282.75 511.768C1282.75 518.083 1284.16 523.587 1286.98 528.28C1289.88 532.888 1293.8 536.472 1298.75 539.032C1303.79 541.507 1309.46 542.744 1315.78 542.744C1323.03 542.744 1329.3 541.464 1334.59 538.904C1339.97 536.344 1343.59 532.248 1345.47 526.616C1345.64 526.275 1345.9 526.104 1346.24 526.104C1346.58 526.104 1346.79 526.232 1346.88 526.488C1346.96 526.744 1346.96 526.957 1346.88 527.128C1344.83 533.101 1341.03 537.453 1335.49 540.184C1329.94 542.915 1323.37 544.28 1315.78 544.28Z" fill="black"/>
<path d="M671.4 537.8H668.2V525H671.4V537.8ZM671.4 541V537.8H684.2V541H671.4ZM671.4 525V521.8H677.8V525H671.4ZM671.4 512.2V509H687.4V512.2H671.4ZM671.4 515.4H668.2V512.2H671.4V515.4ZM677.8 521.8V518.6H687.4V512.2H690.6V541H687.4V537.8H684.2V534.6H687.4V521.8H677.8ZM722.581 541V512.2H725.781V541H722.581ZM696.981 541V509H700.181V512.2H703.381V515.4H700.181V541H696.981ZM722.581 509V512.2H716.181V509H722.581ZM703.381 512.2V509H709.781V512.2H703.381ZM709.781 541V512.2H716.181V515.4H712.981V541H709.781ZM757.784 534.6H754.584V515.4H757.784V534.6ZM735.384 534.6H738.584V537.8H735.384V550.6H732.184V509H735.384V512.2H738.584V515.4H735.384V534.6ZM754.584 534.6V537.8H751.384V534.6H754.584ZM754.584 512.2V515.4H751.384V512.2H754.584ZM738.584 537.8H751.384V541H738.584V537.8ZM738.584 512.2V509H751.384V512.2H738.584ZM786.6 541H783.4V537.8H780.2V534.6H783.4V509H786.6V541ZM764.2 537.8V509H767.4V537.8H764.2ZM767.4 537.8H780.2V541H767.4V537.8ZM815.381 537.8H812.181V525H815.381V537.8ZM815.381 518.6H812.181V512.2H815.381V518.6ZM792.981 537.8V531.4H796.181V537.8H792.981ZM792.981 521.8V512.2H796.181V521.8H792.981ZM796.181 537.8H812.181V541H796.181V537.8ZM796.181 525V521.8H812.181V525H796.181ZM796.181 512.2V509H812.181V512.2H796.181Z" fill="black"/>
<path d="M1038.4 345.8H1036.8V344.2H1038.4V345.8ZM1038.4 361.8V363.4H1036.8V361.8H1038.4ZM1038.4 353.8H1033.6V352.2H1040V361.8H1038.4V353.8ZM1038.4 349V345.8H1040V349H1038.4ZM1027.2 361.8H1025.6V345.8H1027.2V361.8ZM1027.2 363.4V361.8H1028.8V363.4H1027.2ZM1027.2 345.8V344.2H1028.8V345.8H1027.2ZM1036.8 363.4V365H1028.8V363.4H1036.8ZM1036.8 342.6V344.2H1028.8V342.6H1036.8ZM1043.2 365V349H1044.8V350.6H1046.4V352.2H1044.8V365H1043.2ZM1051.2 349V350.6H1046.4V349H1051.2ZM1065.6 361.8V363.4H1064V361.8H1065.6ZM1065.6 350.6V352.2H1064V350.6H1065.6ZM1065.6 352.2H1067.2V361.8H1065.6V352.2ZM1054.4 361.8V352.2H1056V361.8H1054.4ZM1056 361.8H1057.6V363.4H1056V361.8ZM1056 352.2V350.6H1057.6V352.2H1056ZM1057.6 363.4H1064V365H1057.6V363.4ZM1057.6 350.6V349H1064V350.6H1057.6ZM1081.61 361.8V363.4H1080.01V361.8H1081.61ZM1081.61 350.6V352.2H1080.01V350.6H1081.61ZM1081.61 352.2H1083.21V361.8H1081.61V352.2ZM1070.41 361.8V352.2H1072.01V361.8H1070.41ZM1072.01 361.8H1073.61V363.4H1072.01V361.8ZM1072.01 352.2V350.6H1073.61V352.2H1072.01ZM1073.61 363.4H1080.01V365H1073.61V363.4ZM1073.61 350.6V349H1080.01V350.6H1073.61ZM1097.62 353.8H1096.02V349H1097.62V353.8ZM1086.42 353.8V349H1088.02V353.8H1086.42ZM1088.02 358.6V353.8H1089.62V358.6H1088.02ZM1089.62 361.8V358.6H1091.22V361.8H1089.62ZM1091.22 361.8H1092.82V365H1091.22V361.8ZM1092.82 361.8V358.6H1094.42V361.8H1092.82ZM1094.42 358.6V353.8H1096.02V358.6H1094.42ZM1113.61 361.8H1112.01V360.2H1113.61V361.8ZM1113.61 357H1102.41V361.8H1100.81V352.2H1102.41V355.4H1112.01V352.2H1113.61V357ZM1102.41 361.8H1104.01V363.4H1102.41V361.8ZM1102.41 352.2V350.6H1104.01V352.2H1102.41ZM1112.01 361.8V363.4H1110.41V361.8H1112.01ZM1112.01 350.6V352.2H1110.41V350.6H1112.01ZM1104.01 363.4H1110.41V365H1104.01V363.4ZM1104.01 350.6V349H1110.41V350.6H1104.01ZM1139.23 345.8H1137.63V344.2H1139.23V345.8ZM1137.63 363.4V361.8H1139.23V363.4H1137.63ZM1137.63 365H1129.63V363.4H1137.63V365ZM1126.43 345.8H1128.03V361.8H1126.43V345.8ZM1139.23 361.8V345.8H1140.83V361.8H1139.23ZM1137.63 342.6V344.2H1129.63V342.6H1137.63ZM1129.63 345.8H1128.03V344.2H1129.63V345.8ZM1128.03 361.8H1129.63V363.4H1128.03V361.8ZM1155.23 365H1153.63V350.6H1155.23V365ZM1144.03 365V349H1145.63V350.6H1147.23V352.2H1145.63V365H1144.03ZM1147.23 350.6V349H1153.63V350.6H1147.23ZM1160.02 365V363.4H1161.62V365H1160.02ZM1188.82 345.8H1187.22V344.2H1188.82V345.8ZM1188.82 361.8V363.4H1187.22V361.8H1188.82ZM1188.82 353.8V355.4H1187.22V353.8H1188.82ZM1188.82 355.4H1190.42V361.8H1188.82V355.4ZM1188.82 349V345.8H1190.42V349H1188.82ZM1177.62 361.8H1176.02V358.6H1177.62V361.8ZM1177.62 363.4V361.8H1179.22V363.4H1177.62ZM1177.62 350.6H1176.02V345.8H1177.62V350.6ZM1177.62 352.2V350.6H1179.22V352.2H1177.62ZM1177.62 345.8V344.2H1179.22V345.8H1177.62ZM1187.22 363.4V365H1179.22V363.4H1187.22ZM1187.22 353.8H1179.22V352.2H1187.22V353.8ZM1187.22 342.6V344.2H1179.22V342.6H1187.22ZM1204.82 365H1203.22V350.6H1204.82V365ZM1193.62 342.6H1195.22V350.6H1196.82V352.2H1195.22V365H1193.62V342.6ZM1196.82 350.6V349H1203.22V350.6H1196.82ZM1209.61 365V349H1211.21V365H1209.61ZM1211.21 345.8H1209.61V342.6H1211.21V345.8ZM1227.21 365H1225.61V350.6H1227.21V365ZM1216.01 365V349H1217.61V350.6H1219.21V352.2H1217.61V365H1216.01ZM1219.21 350.6V349H1225.61V350.6H1219.21ZM1243.2 361.8H1241.6V360.2H1243.2V361.8ZM1243.2 357H1232V361.8H1230.4V352.2H1232V355.4H1241.6V352.2H1243.2V357ZM1232 361.8H1233.6V363.4H1232V361.8ZM1232 352.2V350.6H1233.6V352.2H1232ZM1241.6 361.8V363.4H1240V361.8H1241.6ZM1241.6 350.6V352.2H1240V350.6H1241.6ZM1233.6 363.4H1240V365H1233.6V363.4ZM1233.6 350.6V349H1240V350.6H1233.6ZM1268.81 345.8H1267.21V344.2H1268.81V345.8ZM1267.21 363.4V361.8H1268.81V363.4H1267.21ZM1267.21 365H1259.21V363.4H1267.21V365ZM1256.01 345.8H1257.61V361.8H1256.01V345.8ZM1268.81 361.8V345.8H1270.41V361.8H1268.81ZM1267.21 342.6V344.2H1259.21V342.6H1267.21ZM1259.21 345.8H1257.61V344.2H1259.21V345.8ZM1257.61 361.8H1259.21V363.4H1257.61V361.8ZM1284.82 365H1283.22V350.6H1284.82V365ZM1273.62 365V349H1275.22V350.6H1276.82V352.2H1275.22V365H1273.62ZM1276.82 350.6V349H1283.22V350.6H1276.82ZM1289.61 365V363.4H1291.21V365H1289.61Z" fill="#171717"/>
<line y1="977" x2="1920" y2="977" stroke="#474747" stroke-width="2"/>
</g>
</svg>
